<?xml version="1.0" encoding="utf-8" ?>
<svg baseProfile="full" height="1000pt" version="1.1" width="1000pt" xmlns="http://www.w3.org/2000/svg" xmlns:ev="http://www.w3.org/2001/xml-events" xmlns:xlink="http://www.w3.org/1999/xlink"><defs /><polygon points="50,50.0 175.0,50.0 190.15151515151516,62.205882352941174 175.0,74.41176470588235 50,74.41176470588235 50,50.0" style="fill:rgb(0 255 0);stroke:black;stroke-width:2;" /><text x="75.0" y="67.20588235294117">A+++</text><polygon points="50,79.41176470588235 202.77777777777777,79.41176470588235 217.92929292929293,91.61764705882354 202.77777777777777,103.8235294117647 50,103.8235294117647 50,79.41176470588235" style="fill:rgb(55 255 0);stroke:black;stroke-width:2;" /><text x="75.0" y="96.61764705882354">A++</text><polygon points="50,108.8235294117647 230.55555555555554,108.8235294117647 245.7070707070707,121.02941176470588 230.55555555555554,133.23529411764707 50,133.23529411764707 50,108.8235294117647" style="fill:rgb(110 255 0);stroke:black;stroke-width:2;" /><text x="75.0" y="126.02941176470588">A+</text><polygon points="50,138.23529411764707 258.33333333333337,138.23529411764707 273.4848484848485,150.44117647058823 258.33333333333337,162.6470588235294 50,162.6470588235294 50,138.23529411764707" style="fill:rgb(165 255 0);stroke:black;stroke-width:2;" /><text x="75.0" y="155.44117647058823">A</text><polygon points="50,167.6470588235294 286.1111111111111,167.6470588235294 301.26262626262627,179.85294117647058 286.1111111111111,192.05882352941177 50,192.05882352941177 50,167.6470588235294" style="fill:rgb(255 255 0);stroke:black;stroke-width:2;" /><text x="75.0" y="184.85294117647058">B</text><polygon points="50,197.05882352941177 313.8888888888889,197.05882352941177 329.04040404040404,209.26470588235296 313.8888888888889,221.47058823529412 50,221.47058823529412 50,197.05882352941177" style="fill:rgb(255 200 0);stroke:black;stroke-width:2;" /><text x="75.0" y="214.26470588235296">C</text><polygon points="50,226.47058823529412 341.6666666666667,226.47058823529412 356.8181818181818,238.6764705882353 341.6666666666667,250.88235294117646 50,250.88235294117646 50,226.47058823529412" style="fill:rgb(255 145 0);stroke:black;stroke-width:2;" /><text x="75.0" y="243.6764705882353">D</text><polygon points="50,255.88235294117646 369.44444444444446,255.88235294117646 384.5959595959596,268.0882352941177 369.44444444444446,280.2941176470588 50,280.2941176470588 50,255.88235294117646" style="fill:rgb(255 90 0);stroke:black;stroke-width:2;" /><text x="75.0" y="273.0882352941177">E</text><polygon points="50,285.2941176470588 397.22222222222223,285.2941176470588 412.37373737373736,297.5 397.22222222222223,309.70588235294116 50,309.70588235294116 50,285.2941176470588" style="fill:rgb(255 35 0);stroke:black;stroke-width:2;" /><text x="75.0" y="302.5">F</text><polygon points="248.2323232323232,79.41176470588235 233.08080808080808,91.61764705882354 248.2323232323232,103.8235294117647 550,103.8235294117647 550,79.41176470588235" style="fill:black;" /><text fill="white" x="249.7979797979798" y="96.61764705882354">A++</text><text x="75.0" y="389.70588235294116">Score</text><text x="325.0" y="389.70588235294116">95 / 100</text><polygon points="50,359.70588235294116 300,359.70588235294116 300,409.70588235294116 50,409.70588235294116 50,359.70588235294116" style="fill:none; stroke:black;stroke-width:2;" /><polygon points="300,359.70588235294116 550,359.70588235294116 550,409.70588235294116 300,409.70588235294116 300,359.70588235294116" style="fill:none; stroke:black;stroke-width:2;" /><text x="75.0" y="439.70588235294116">Overall</text><text x="325.0" y="439.70588235294116">A++</text><polygon points="50,409.70588235294116 300,409.70588235294116 300,459.70588235294116 50,459.70588235294116 50,409.70588235294116" style="fill:none; stroke:black;stroke-width:2;" /><polygon points="300,409.70588235294116 550,409.70588235294116 550,459.70588235294116 300,459.70588235294116 300,409.70588235294116" style="fill:none; stroke:black;stroke-width:2;" /><text x="75.0" y="489.70588235294116">Coverage</text><text x="325.0" y="489.70588235294116">A+  (94%)</text><polygon points="50,459.70588235294116 300,459.70588235294116 300,509.70588235294116 50,509.70588235294116 50,459.70588235294116" style="fill:none; stroke:black;stroke-width:2;" /><polygon points="300,459.70588235294116 550,459.70588235294116 550,509.70588235294116 300,509.70588235294116 300,459.70588235294116" style="fill:none; stroke:black;stroke-width:2;" /><text x="75.0" y="539.7058823529412">Common issues</text><text x="325.0" y="539.7058823529412">A+++  (100%)</text><polygon points="50,509.70588235294116 300,509.70588235294116 300,559.7058823529412 50,559.7058823529412 50,509.70588235294116" style="fill:none; stroke:black;stroke-width:2;" /><polygon points="300,509.70588235294116 550,509.70588235294116 550,559.7058823529412 300,559.7058823529412 300,509.70588235294116" style="fill:none; stroke:black;stroke-width:2;" /><text x="75.0" y="589.7058823529412">Dead code</text><text x="325.0" y="589.7058823529412">A+++  (100%)</text><polygon points="50,559.7058823529412 300,559.7058823529412 300,609.7058823529412 50,609.7058823529412 50,559.7058823529412" style="fill:none; stroke:black;stroke-width:2;" /><polygon points="300,559.7058823529412 550,559.7058823529412 550,609.7058823529412 300,609.7058823529412 300,559.7058823529412" style="fill:none; stroke:black;stroke-width:2;" /><text x="75.0" y="639.7058823529412">Linter</text><text x="325.0" y="639.7058823529412">A++  (96%)</text><polygon points="50,609.7058823529412 300,609.7058823529412 300,659.7058823529412 50,659.7058823529412 50,609.7058823529412" style="fill:none; stroke:black;stroke-width:2;" /><polygon points="300,609.7058823529412 550,609.7058823529412 550,659.7058823529412 300,659.7058823529412 300,609.7058823529412" style="fill:none; stroke:black;stroke-width:2;" /><text x="75.0" y="689.7058823529412">Documentation</text><text x="325.0" y="689.7058823529412">A++  (96%)</text><polygon points="50,659.7058823529412 300,659.7058823529412 300,709.7058823529412 50,709.7058823529412 50,659.7058823529412" style="fill:none; stroke:black;stroke-width:2;" /><polygon points="300,659.7058823529412 550,659.7058823529412 550,709.7058823529412 300,709.7058823529412 300,659.7058823529412" style="fill:none; stroke:black;stroke-width:2;" /><text x="75.0" y="739.7058823529412">Code complexity</text><text x="325.0" y="739.7058823529412">B  (83%)</text><polygon points="50,709.7058823529412 300,709.7058823529412 300,759.7058823529412 50,759.7058823529412 50,709.7058823529412" style="fill:none; stroke:black;stroke-width:2;" /><polygon points="300,709.7058823529412 550,709.7058823529412 550,759.7058823529412 300,759.7058823529412 300,709.7058823529412" style="fill:none; stroke:black;stroke-width:2;" /><text x="75.0" y="789.7058823529412">Maintainability index</text><text x="325.0" y="789.7058823529412">A+++  (100%)</text><polygon points="50,759.7058823529412 300,759.7058823529412 300,809.7058823529412 50,809.7058823529412 50,759.7058823529412" style="fill:none; stroke:black;stroke-width:2;" /><polygon points="300,759.7058823529412 550,759.7058823529412 550,809.7058823529412 300,809.7058823529412 300,759.7058823529412" style="fill:none; stroke:black;stroke-width:2;" /></svg>